<?xml version="1.0" encoding="iso-8859-1"?>
<!-- Generator: Adobe Illustrator 19.0.0, SVG Export Plug-In . SVG Version: 6.00 Build 0)  -->
<svg version="1.1" id="Capa_1" xmlns="http://www.w3.org/2000/svg" xmlns:xlink="http://www.w3.org/1999/xlink" x="0px" y="0px"
	 viewBox="0 0 469.333 469.333" style="enable-background:new 0 0 469.333 469.333;" xml:space="preserve">
<path style="fill:#303C42;" d="M469.333,85.333c0-23.531-19.146-42.667-42.667-42.667h-64v-32C362.667,4.771,357.896,0,352,0
	c-5.896,0-10.667,4.771-10.667,10.667v32h-192v-32C149.333,4.771,144.563,0,138.667,0S128,4.771,128,10.667v32H42.667
	C19.146,42.667,0,61.802,0,85.333v341.333c0,23.531,19.146,42.667,42.667,42.667h309.313v-0.004l0.021,0.004
	c2.771,0,5.5-1.083,7.542-3.125l106.667-106.667c2.034-2.042,2.708-4.767,2.711-7.542h0.414V85.333z"/>
<path style="fill:#FFFFFF;" d="M341.333,384v64H42.667c-11.771,0-21.333-9.573-21.333-21.333v-256H448v170.667h-64
	C360.479,341.333,341.333,360.469,341.333,384z"/>
<path style="fill:#303C42;" d="M341.333,277.333c0-35.292-28.708-64-64-64c-16.01,0-31.021,5.885-42.667,16.469
	c-11.646-10.583-26.656-16.469-42.667-16.469c-35.292,0-64,28.708-64,64c0,17.104,6.656,33.177,18.781,45.281l80.375,79.625
	c2.083,2.063,4.792,3.094,7.51,3.094s5.427-1.031,7.51-3.094l80.406-79.656C334.677,310.51,341.333,294.438,341.333,277.333z"/>
<path style="fill:#D32F2F;" d="M307.531,307.469l-72.865,72.188L161.833,307.5c-8.063-8.052-12.5-18.771-12.5-30.167
	c0-23.531,19.135-42.667,42.667-42.667c13.479,0,25.906,6.313,34.115,17.333c4.021,5.396,13.083,5.396,17.104,0
	c8.208-11.021,20.635-17.333,34.115-17.333c23.531,0,42.667,19.135,42.667,42.667C320,288.729,315.563,299.448,307.531,307.469z"/>
<path style="opacity:0.2;fill:#FFFFFF;enable-background:new    ;" d="M192,249.677c13.479,0,25.906,6.313,34.115,17.333
	c4.021,5.396,13.083,5.396,17.104,0c8.208-11.021,20.635-17.333,34.115-17.333c21.007,0,38.406,15.28,41.921,35.293
	c0.449-2.5,0.746-5.043,0.746-7.637c0-23.531-19.135-42.667-42.667-42.667c-13.479,0-25.906,6.313-34.115,17.333
	c-4.021,5.396-13.083,5.396-17.104,0c-8.208-11.021-20.635-17.333-34.115-17.333c-23.531,0-42.667,19.135-42.667,42.667
	c0,2.594,0.296,5.137,0.746,7.637C153.595,264.957,170.993,249.677,192,249.677z"/>
<path style="fill:#D32F2F;" d="M42.667,64H128v21.333c-11.771,0-21.333,9.573-21.333,21.333S116.229,128,128,128
	c11.771,0,21.333-9.573,21.333-21.333V64h192v21.333c-11.771,0-21.333,9.573-21.333,21.333S329.563,128,341.333,128
	s21.333-9.573,21.333-21.333V64h64C438.438,64,448,73.573,448,85.333v64H21.333v-64C21.333,73.573,30.896,64,42.667,64z"/>
<g>
	<rect x="149.333" y="64" style="opacity:0.2;fill:#FFFFFF;enable-background:new    ;" width="192" height="10.667"/>
	<path style="opacity:0.2;fill:#FFFFFF;enable-background:new    ;" d="M42.667,74.667H128V64H42.667
		c-11.771,0-21.333,9.573-21.333,21.333V96C21.333,84.24,30.896,74.667,42.667,74.667z"/>
	<path style="opacity:0.2;fill:#FFFFFF;enable-background:new    ;" d="M426.667,64h-64v10.667h64C438.438,74.667,448,84.24,448,96
		V85.333C448,73.573,438.438,64,426.667,64z"/>
</g>
<path style="fill:#E6E6E6;" d="M362.667,432.917V384c0-11.76,9.563-21.333,21.333-21.333h48.917L362.667,432.917z"/>
<linearGradient id="SVGID_1_" gradientUnits="userSpaceOnUse" x1="-68.2648" y1="617.9603" x2="-45.2002" y2="607.204" gradientTransform="matrix(21.3333 0 0 -21.3333 1430.1112 13315.2227)">
	<stop  offset="0" style="stop-color:#FFFFFF;stop-opacity:0.2"/>
	<stop  offset="1" style="stop-color:#FFFFFF;stop-opacity:0"/>
</linearGradient>
<path style="fill:url(#SVGID_1_);" d="M469.333,85.333c0-23.531-19.146-42.667-42.667-42.667h-64v-32C362.667,4.771,357.896,0,352,0
	c-5.896,0-10.667,4.771-10.667,10.667v32h-192v-32C149.333,4.771,144.563,0,138.667,0S128,4.771,128,10.667v32H42.667
	C19.146,42.667,0,61.802,0,85.333v341.333c0,23.531,19.146,42.667,42.667,42.667h309.313v-0.004l0.021,0.004
	c2.771,0,5.5-1.083,7.542-3.125l106.667-106.667c2.034-2.042,2.708-4.767,2.711-7.542h0.414V85.333z"/>
<g>
</g>
<g>
</g>
<g>
</g>
<g>
</g>
<g>
</g>
<g>
</g>
<g>
</g>
<g>
</g>
<g>
</g>
<g>
</g>
<g>
</g>
<g>
</g>
<g>
</g>
<g>
</g>
<g>
</g>
</svg>
