<?xml version="1.0" encoding="iso-8859-1"?>
<!-- Generator: Adobe Illustrator 19.0.0, SVG Export Plug-In . SVG Version: 6.00 Build 0)  -->
<svg version="1.1" id="Layer_1" xmlns="http://www.w3.org/2000/svg" xmlns:xlink="http://www.w3.org/1999/xlink" x="0px" y="0px"
	 viewBox="0 0 480 480" style="enable-background:new 0 0 480 480;" xml:space="preserve">
<g id="XMLID_10_">
	<g>
		<g>
			<path d="M310,192c5.523,0,10-4.477,10-10v-2c0-5.523-4.477-10-10-10s-10,4.477-10,10v2C300,187.523,304.477,192,310,192z"/>
			<path d="M380,400c5.523,0,10-4.477,10-10v-2c0-5.523-4.477-10-10-10s-10,4.477-10,10v2C370,395.523,374.477,400,380,400z"/>
			<path d="M380,299.333c5.523,0,10-4.477,10-10v-2c0-5.522-4.477-10-10-10s-10,4.477-10,10v2
				C370,294.856,374.477,299.333,380,299.333z"/>
			<path d="M310,299.333c5.523,0,10-4.477,10-10v-2c0-5.522-4.477-10-10-10s-10,4.477-10,10v2
				C300,294.856,304.477,299.333,310,299.333z"/>
			<path d="M100,378c-5.523,0-10,4.477-10,10v2c0,5.523,4.477,10,10,10s10-4.477,10-10v-2C110,382.477,105.523,378,100,378z"/>
			<path d="M380,192c5.523,0,10-4.477,10-10v-2c0-5.523-4.477-10-10-10s-10,4.477-10,10v2C370,187.523,374.477,192,380,192z"/>
			<path d="M170,378c-5.523,0-10,4.477-10,10v2c0,5.523,4.477,10,10,10s10-4.477,10-10v-2C180,382.477,175.523,378,170,378z"/>
			<path d="M92.285,303.255l33.648,28.041c3.661,3.05,8.301,4.73,13.066,4.73c4.765,0,9.405-1.68,13.067-4.731l33.648-28.04
				c7.807-6.506,12.285-16.066,12.285-26.229c0.001-20.063-16.321-36.385-36.384-36.385c-8.285,0-16.257,2.884-22.615,7.915
				c-6.358-5.031-14.331-7.915-22.615-7.915C96.322,240.641,80,256.963,80,277.026C80,287.189,84.478,296.749,92.285,303.255z
				 M116.385,260.642c5.798,0,11.05,2.972,14.049,7.951c1.809,3.003,5.06,4.84,8.566,4.84s6.757-1.836,8.566-4.84
				c2.999-4.979,8.251-7.951,14.049-7.951c9.035,0,16.385,7.35,16.385,16.385c0,4.208-1.855,8.168-5.089,10.864l-33.647,28.04
				c-0.148,0.123-0.379,0.123-0.527,0l-33.648-28.04c-3.234-2.695-5.089-6.655-5.089-10.865
				C100,267.992,107.35,260.642,116.385,260.642z"/>
			<path d="M100,192c5.523,0,10-4.477,10-10v-2c0-5.523-4.477-10-10-10s-10,4.477-10,10v2C90,187.523,94.477,192,100,192z"/>
			<path d="M450,20h-60V10c0-5.523-4.477-10-10-10s-10,4.477-10,10v10H110V10c0-5.523-4.477-10-10-10S90,4.477,90,10v10H30
				C13.458,20,0,33.458,0,50v30c0,13.036,8.361,24.152,20,28.28V450c0,16.542,13.458,30,30,30h380c16.542,0,30-13.458,30-30V108.28
				c11.639-4.128,20-15.243,20-28.28V50C480,33.458,466.542,20,450,20z M440,450c0,5.514-4.486,10-10,10H50c-5.514,0-10-4.486-10-10
				V110h400V450z M460,80c0,5.514-4.486,10-10,10H30c-5.514,0-10-4.486-10-10V50c0-5.514,4.486-10,10-10h60v20
				c0,5.523,4.477,10,10,10s10-4.477,10-10V40h260v20c0,5.523,4.477,10,10,10s10-4.477,10-10V40h60c5.514,0,10,4.486,10,10V80z"/>
			<path d="M310,400c5.523,0,10-4.477,10-10v-2c0-5.523-4.477-10-10-10s-10,4.477-10,10v2C300,395.523,304.477,400,310,400z"/>
			<path d="M170,192c5.523,0,10-4.477,10-10v-2c0-5.523-4.477-10-10-10s-10,4.477-10,10v2C160,187.523,164.477,192,170,192z"/>
			<path d="M240,192c5.523,0,10-4.477,10-10v-2c0-5.523-4.477-10-10-10s-10,4.477-10,10v2C230,187.523,234.477,192,240,192z"/>
			<path d="M240,400c5.523,0,10-4.477,10-10v-2c0-5.523-4.477-10-10-10s-10,4.477-10,10v2C230,395.523,234.477,400,240,400z"/>
			<path d="M240,299.333c5.523,0,10-4.477,10-10v-2c0-5.522-4.477-10-10-10s-10,4.477-10,10v2
				C230,294.856,234.477,299.333,240,299.333z"/>
		</g>
	</g>
</g>
<g>
</g>
<g>
</g>
<g>
</g>
<g>
</g>
<g>
</g>
<g>
</g>
<g>
</g>
<g>
</g>
<g>
</g>
<g>
</g>
<g>
</g>
<g>
</g>
<g>
</g>
<g>
</g>
<g>
</g>
</svg>
