<?xml version="1.0" encoding="iso-8859-1"?>
<!-- Generator: Adobe Illustrator 16.0.0, SVG Export Plug-In . SVG Version: 6.00 Build 0)  -->
<!DOCTYPE svg PUBLIC "-//W3C//DTD SVG 1.1//EN" "http://www.w3.org/Graphics/SVG/1.1/DTD/svg11.dtd">
<svg version="1.1" id="Capa_1" xmlns="http://www.w3.org/2000/svg" xmlns:xlink="http://www.w3.org/1999/xlink" x="0px" y="0px"
	 width="354.19px" height="354.189px" viewBox="0 0 354.19 354.189" style="enable-background:new 0 0 354.19 354.189;"
	 xml:space="preserve">
<g>
	<g>
		<g>
			<path d="M341.355,126.429c-0.612-18.972,3.672-47.736-6.12-65.484c-3.061-6.12-7.956-10.404-14.076-13.464
				c-3.06-22.644-13.464-45.9-38.556-46.512c-7.345,0-9.181,11.016-1.836,12.852c13.464,2.448,19.584,14.688,22.031,27.54
				c-15.301-3.06-33.049-3.672-48.96-3.06c-4.896-17.748-15.912-32.436-34.885-33.66c-7.344-0.612-8.567,10.404-1.836,12.24
				c7.956,2.448,14.688,11.628,18.973,22.032c-5.509,0-10.403,0.612-14.688,0.612c-13.464,0-26.315-0.612-39.78-0.612
				c-4.896-23.256-24.479-52.632-48.959-31.824c-4.896,4.284,1.225,10.404,6.732,8.568c15.3-6.732,22.644,10.404,24.479,23.256
				c-23.256,0-46.512,0.612-69.768,1.224c-2.448-7.956-6.12-15.912-11.628-21.42c-6.12-6.732-18.972-14.688-27.54-6.732
				c-1.836,1.836-1.836,4.896,0,6.732c0.612,0.612,1.224,1.224,2.448,1.224c11.016,0,15.912,11.016,18.36,20.808
				c-15.3,0.612-29.988,1.836-45.288,3.06c-6.732,0.612-9.18,7.956-6.12,12.24c-8.568,56.916-6.732,116.28-9.18,173.196
				c-1.224,29.988-12.852,92.412,17.748,112.607c15.912,10.404,40.392,7.345,58.14,7.956c32.436,0.612,64.872,1.225,97.308,1.837
				c30.6,0.611,61.812,3.061,92.412,2.447c13.464-0.611,28.764-1.836,39.779-10.403c11.017-8.567,13.464-20.196,15.911-33.66
				c4.284-29.376,3.673-60.588,4.284-89.964C342.579,188.853,342.579,157.641,341.355,126.429z M326.054,254.948
				c-0.611,23.868,3.061,53.855-13.464,71.604c-16.523,18.359-39.779,13.464-62.425,13.464c-22.031,0-44.676-0.611-66.708-0.611
				c-22.031-0.611-44.675-0.611-66.708-1.225c-25.704-0.611-49.572,3.672-70.992-10.403c-17.748-11.628-17.136-17.748-18.36-38.557
				c-0.612-11.628-0.612-23.868,0-35.496c0.612-21.42,1.836-42.84,2.448-64.26c1.836-42.84,6.12-86.904,3.06-129.745
				c15.912-0.612,31.212-1.224,47.124-1.836c0,1.224,0,2.448,0,3.672c0,4.284-3.06,18.36-10.404,11.016
				c-3.672-4.284-11.628-2.448-12.852,3.672c-3.06,13.464,9.18,22.032,22.032,18.972c14.688-3.672,20.808-19.584,20.196-33.048
				c0-1.836,0-3.06-0.612-4.896c22.644-0.612,44.676-1.836,67.319-2.448c-0.611,10.404-3.672,23.868-15.912,18.972
				c-7.344-3.06-11.628,6.12-9.18,12.24c5.508,11.628,20.808,11.628,29.988,4.284c9.792-7.956,12.851-22.644,12.851-35.496
				c18.974,0,37.944,0,56.916,0.612c1.836,15.3-3.06,29.376-17.136,28.764c-3.672,0-7.344,3.672-7.344,7.344
				c0,0.612,0,1.836,0,2.448c0,4.896,3.06,7.344,7.344,9.18c22.645,9.18,35.496-18.972,33.66-47.736
				c12.24,0.612,24.479,1.224,36.107,1.836c4.283,0.612,8.567,1.224,11.628,2.448c0,1.836,0,3.672,0,5.508
				c0,7.956,1.225,36.72-11.628,31.824c-4.896-1.836-9.181,3.06-9.792,7.344c0,1.224,0,1.836-0.611,3.06
				c-0.612,3.06,2.447,6.732,4.896,8.568c25.093,16.524,32.438-16.524,34.272-36.108c4.896,14.076,3.672,32.436,4.284,47.736
				c0.61,19.584,0.61,39.168,0.61,58.141C327.891,208.438,327.279,231.692,326.054,254.948z"/>
			<path d="M298.515,147.236c3.06-2.448,1.836-8.568-3.062-9.18c-71.604-6.12-148.104-0.612-219.708,6.732
				c-2.448-1.836-7.344-0.612-7.956,3.672c-6.732,48.96-6.732,98.532-9.792,148.104c0,3.672,3.06,6.119,6.732,6.731
				c40.392,1.836,80.784,3.672,121.176,5.508c18.36,0.612,36.108,1.836,54.468,2.448c11.628,0.611,34.885,6.12,46.513,1.224
				c15.912-6.12,11.017-25.092,11.017-39.779c0.612-41.004,0.612-81.396,1.224-122.4
				C299.126,149.072,299.126,147.849,298.515,147.236z M284.439,284.938c3.672,12.239-0.612,16.523-13.464,14.075
				c-7.956-0.611-15.912-0.611-24.48-1.224c-58.14-2.448-116.279-4.896-174.419-7.345c2.448-45.288,6.732-91.801,5.508-137.088
				c69.156-1.836,139.536-0.612,208.08-4.284c0,0.612,0,0.612,0,1.224c-0.611,32.436-0.611,65.484-1.224,97.919
				C284.439,258.621,286.886,274.532,284.439,284.938z"/>
			<path d="M219.567,190.076c-15.3-13.464-33.66,9.792-44.063,29.376c-4.896-7.956-9.792-15.911-16.523-20.809
				c-7.345-6.119-20.196-7.956-25.704,1.837c-12.852,22.031,27.54,45.287,42.84,51.407c1.836,0.612,3.671,0.612,4.896,0
				c1.837,0,4.283,0,6.731-1.836C201.207,240.873,240.987,209.66,219.567,190.076z"/>
		</g>
	</g>
</g>
<g>
</g>
<g>
</g>
<g>
</g>
<g>
</g>
<g>
</g>
<g>
</g>
<g>
</g>
<g>
</g>
<g>
</g>
<g>
</g>
<g>
</g>
<g>
</g>
<g>
</g>
<g>
</g>
<g>
</g>
</svg>
